<!DOCTYPE svg PUBLIC "-//W3C//DTD SVG 20010904//EN" "http://www.w3.org/TR/2001/REC-SVG-20010904/DTD/svg10.dtd">
<svg version="1.0" xmlns="http://www.w3.org/2000/svg" width="400px" height="400px" viewBox="0 0 4000 4000" preserveAspectRatio="xMidYMid meet">
<g id="layer101" fill="#fefeff" stroke="none">
 <path d="M1363 3324 c-36 -36 -29 -91 24 -169 60 -88 81 -135 80 -181 0 -37 -3 -43 -46 -69 -66 -42 -229 -209 -280 -287 -23 -37 -58 -102 -76 -145 -34 -78 -34 -78 -81 -88 -43 -8 -59 -5 -153 28 -58 20 -116 37 -128 37 -35 0 -83 -47 -83 -82 0 -70 38 -93 177 -107 107 -11 136 -20 168 -48 18 -16 20 -31 21 -163 0 -184 22 -281 99 -435 34 -70 51 -113 45 -119 -6 -6 -10 -18 -10 -27 0 -22 -43 -58 -128 -108 -89 -52 -116 -82 -116 -128 0 -26 7 -42 28 -59 50 -44 76 -34 186 70 85 81 104 94 141 99 41 5 46 3 98 -45 137 -125 335 -217 524 -244 28 -4 47 -11 47 -19 0 -7 7 -19 16 -26 17 -14 16 -56 -2 -234 -6 -57 -5 -62 24 -93 38 -40 82 -43 117 -8 34 34 40 70 27 148 -17 96 -15 173 3 188 8 7 15 18 15 25 0 8 20 16 53 20 181 25 385 123 530 255 32 29 58 46 62 40 3 -5 19 -10 35 -10 24 0 46 -16 107 -77 42 -43 88 -86 102 -95 59 -40 135 -2 135 67 0 44 -24 68 -149 149 -44 28 -85 62 -91 74 -7 13 -16 28 -22 34 -7 7 -3 23 15 51 38 60 81 162 110 257 21 70 26 112 31 239 4 148 6 155 29 177 26 25 99 44 166 44 107 1 167 37 167 100 0 49 -37 85 -88 84 -20 0 -73 -14 -117 -31 -87 -34 -124 -40 -170 -29 -27 7 -37 21 -82 114 -78 163 -190 299 -328 397 -56 40 -61 47 -62 82 -2 40 27 100 93 196 44 64 46 116 8 152 -50 46 -114 23 -147 -52 -9 -21 -28 -73 -43 -115 -20 -59 -34 -84 -60 -103 l-33 -25 -98 25 c-180 46 -351 44 -527 -7 l-79 -23 -33 30 c-24 23 -41 56 -69 138 -28 80 -45 114 -67 132 -39 33 -81 32 -115 -1z m835 -485 c33 -9 42 -15 37 -28 -3 -9 -47 -91 -98 -184 -95 -173 -108 -187 -159 -173 -17 4 -48 53 -122 187 -54 99 -96 182 -93 185 2 3 33 11 68 19 75 17 299 14 367 -6z m-559 -298 c39 -96 71 -186 71 -202 0 -25 -22 -59 -38 -59 -23 -1 -393 64 -404 71 -27 17 86 201 174 285 61 58 112 94 119 86 3 -4 38 -85 78 -181z m895 118 c87 -82 130 -137 179 -234 26 -50 33 -72 24 -76 -7 -4 -99 -21 -206 -39 -222 -36 -241 -34 -241 24 0 20 30 105 71 203 39 92 73 174 76 181 9 20 18 15 97 -59z m-479 -487 c46 -25 50 -31 62 -81 11 -54 11 -55 -19 -98 l-31 -43 -67 0 c-66 0 -66 0 -98 42 -22 29 -31 50 -28 63 4 11 9 36 12 56 5 31 13 39 58 62 28 14 53 26 56 26 3 0 27 -12 55 -27z m-437 -169 c22 -31 14 -60 -30 -101 -180 -165 -271 -243 -278 -235 -21 20 -62 119 -81 190 -11 43 -23 124 -26 179 l-6 102 204 -59 c126 -36 209 -65 217 -76z m1179 35 c-3 -51 -15 -129 -26 -173 -21 -79 -74 -205 -86 -205 -8 0 -282 245 -302 269 -7 8 -13 24 -13 36 0 42 24 54 215 109 105 30 196 55 204 55 11 1 13 -17 8 -91z m-948 -327 c15 -15 19 -41 25 -147 4 -71 9 -166 13 -211 l6 -82 -64 15 c-131 29 -305 116 -362 182 -18 20 -17 21 80 89 273 193 266 190 302 154z m539 -110 l164 -116 -38 -32 c-54 -45 -159 -106 -226 -131 -85 -32 -178 -52 -178 -38 0 42 22 385 26 404 5 26 39 43 69 35 11 -3 94 -58 183 -122z"/>
 </g>
<g id="layer102" fill="#326de6" stroke="none">
 <path d="M1215 3826 c-93 -26 -87 -20 -410 -421 -635 -787 -654 -811 -676 -860 -21 -45 -24 -122 -9 -175 6 -19 19 -73 30 -120 10 -47 37 -166 60 -265 23 -99 50 -216 60 -260 20 -90 93 -407 143 -621 35 -151 66 -217 120 -258 18 -14 84 -49 147 -79 139 -66 313 -149 475 -227 66 -32 163 -78 215 -103 52 -25 158 -75 235 -112 350 -168 367 -174 441 -156 25 6 92 34 150 61 57 28 152 73 212 101 277 132 409 195 657 314 66 32 179 86 250 120 223 106 221 103 317 535 5 25 13 61 18 80 13 58 107 464 145 625 19 83 42 184 51 225 8 41 22 97 30 124 19 67 17 143 -5 191 -16 35 -223 299 -678 862 -321 398 -320 398 -415 421 -66 17 -1506 15 -1563 -2z m254 -513 c12 -10 36 -63 57 -123 28 -84 44 -113 76 -146 l40 -40 82 23 c179 52 343 54 532 7 98 -25 108 -25 119 -10 7 9 17 16 22 16 18 0 43 48 74 138 48 136 59 152 112 152 64 0 76 -80 23 -157 -69 -101 -95 -156 -93 -200 2 -40 5 -44 72 -91 82 -58 194 -173 249 -257 22 -32 59 -102 83 -155 38 -85 46 -96 75 -103 54 -14 94 -9 181 25 131 51 187 41 187 -33 0 -54 -25 -67 -148 -79 -102 -10 -149 -24 -189 -57 -20 -17 -21 -29 -26 -178 -4 -134 -8 -174 -30 -245 -29 -96 -72 -197 -110 -258 -23 -35 -24 -42 -12 -52 8 -7 15 -18 15 -24 0 -20 61 -72 145 -124 47 -28 86 -60 93 -76 27 -54 -19 -108 -79 -93 -13 4 -66 47 -117 97 -74 71 -100 90 -122 90 -16 0 -32 5 -35 10 -4 6 -30 -11 -62 -40 -146 -133 -325 -220 -523 -253 -64 -11 -75 -16 -78 -34 -2 -12 -10 -27 -18 -33 -17 -15 -19 -93 -2 -188 12 -73 7 -111 -18 -136 -23 -23 -70 -20 -94 7 -19 19 -21 30 -16 82 18 185 19 215 3 233 -8 9 -17 26 -19 37 -2 16 -17 22 -76 32 -201 33 -376 116 -513 241 -52 48 -57 50 -98 45 -37 -5 -56 -18 -141 -99 -78 -73 -106 -94 -128 -94 -43 0 -66 22 -66 63 0 45 13 59 96 108 84 49 132 91 153 131 15 30 14 34 -40 142 -78 159 -97 244 -101 440 -2 149 -4 161 -22 167 -11 4 -23 13 -27 19 -12 19 -54 30 -158 41 -134 14 -157 26 -157 86 0 35 29 63 65 63 11 0 66 -16 123 -36 94 -34 108 -36 159 -28 l56 9 37 88 c21 48 57 118 81 155 54 83 184 215 265 270 59 39 61 42 61 84 1 48 -20 94 -80 183 -66 97 -60 175 13 175 15 0 37 -8 49 -17z"/>
 <path d="M1831 2865 c-108 -24 -108 -17 10 -232 112 -202 127 -218 187 -197 22 7 47 45 130 194 56 102 101 191 100 199 -8 40 -302 64 -427 36z"/>
 <path d="M1520 2723 c-63 -47 -140 -127 -186 -190 -52 -73 -107 -184 -96 -195 7 -7 398 -78 430 -78 24 0 62 48 62 78 0 33 -150 404 -165 409 -6 1 -26 -9 -45 -24z"/>
 <path d="M2414 2713 c-160 -378 -165 -397 -112 -436 l27 -20 211 35 c116 20 216 40 222 46 13 13 -46 134 -102 207 -64 86 -191 205 -218 205 -7 0 -19 -17 -28 -37z"/>
 <path d="M1936 2187 c-58 -31 -60 -34 -73 -87 -6 -30 -12 -58 -13 -61 0 -4 18 -29 41 -58 l41 -51 69 0 68 0 40 53 c30 40 39 59 35 77 -24 101 -22 99 -84 130 -33 17 -61 30 -62 30 -2 0 -30 -15 -62 -33z"/>
 <path d="M1189 2143 c-17 -20 -5 -191 20 -286 18 -70 69 -188 91 -211 12 -12 26 -2 171 129 182 164 179 161 179 189 0 55 -32 73 -247 135 -170 49 -205 56 -214 44z"/>
 <path d="M2585 2094 c-150 -43 -195 -60 -212 -80 -27 -30 -29 -65 -5 -92 35 -40 311 -282 322 -282 17 0 77 136 102 230 15 57 22 116 22 180 1 88 -1 95 -19 97 -11 1 -105 -23 -210 -53z"/>
 <path d="M1619 1629 c-96 -67 -178 -125 -183 -130 -23 -21 115 -128 230 -180 77 -35 225 -72 237 -60 5 5 4 86 -2 185 -6 97 -11 193 -11 212 0 40 -45 94 -78 94 -10 0 -97 -55 -193 -121z"/>
 <path d="M2163 1740 c-44 -18 -50 -45 -63 -264 -6 -115 -8 -212 -3 -217 9 -9 134 19 203 47 100 40 278 164 264 185 -9 16 -338 246 -359 252 -11 3 -30 2 -42 -3z"/>
 </g>

</svg>